HIERARCHY
ROOT hip
{
	OFFSET 0.000000 0.000000 0.000000
	CHANNELS 6 Xposition Yposition Zposition Xrotation Zrotation Yrotation 
	JOINT abdomen
	{
		OFFSET 0.000000 3.422050 0.000000
		CHANNELS 3 Xrotation Zrotation Yrotation 
		JOINT chest
		{
			OFFSET 0.000000 8.486693 -0.684411
			CHANNELS 3 Xrotation Zrotation Yrotation 
			JOINT neck
			{
				OFFSET 0.000000 10.266162 -0.273764
				CHANNELS 3 Xrotation Zrotation Yrotation 
				JOINT head
				{
					OFFSET 0.000000 3.148285 0.000000
					CHANNELS 3 Xrotation Zrotation Yrotation 
					End Site
					{
						OFFSET 0.000000 3.148289 0.000000
					}
				}
			}
			JOINT lCollar
			{
				OFFSET 3.422053 6.707223 -0.821293
				CHANNELS 3 Yrotation Zrotation Xrotation 
				JOINT lShldr
				{
					OFFSET 3.285171 0.000000 0.000000
					CHANNELS 3 Zrotation Yrotation Xrotation 
					JOINT lForeArm
					{
						OFFSET 10.129278 0.000000 0.000000
						CHANNELS 3 Yrotation Zrotation Xrotation 
						JOINT lHand
						{
							OFFSET 8.486692 0.000000 0.000000
							CHANNELS 3 Zrotation Yrotation Xrotation 
							End Site
							{
								OFFSET 4.106464 0.000000 0.000000
							}
						}
					}
				}
			}
			JOINT rCollar
			{
				OFFSET -3.558935 6.707223 -0.821293
				CHANNELS 3 Yrotation Zrotation Xrotation 
				JOINT rShldr
				{
					OFFSET -3.148289 0.000000 0.000000
					CHANNELS 3 Zrotation Yrotation Xrotation 
					JOINT rForeArm
					{
						OFFSET -10.266159 0.000000 0.000000
						CHANNELS 3 Yrotation Zrotation Xrotation 
						JOINT rHand
						{
							OFFSET -8.349810 0.000000 0.000000
							CHANNELS 3 Zrotation Yrotation Xrotation 
							End Site
							{
								OFFSET -4.106464 0.000000 0.000000
							}
						}
					}
				}
			}
		}
	}
	JOINT lThigh
	{
		OFFSET 5.338403 -1.642589 1.368821
		CHANNELS 3 Xrotation Zrotation Yrotation 
		JOINT lShin
		{
			OFFSET -2.053232 -20.121670 0.000000
			CHANNELS 3 Xrotation Zrotation Yrotation 
			JOINT lFoot
			{
				OFFSET 0.000000 -19.300380 -1.231939
				CHANNELS 3 Xrotation Yrotation Zrotation 
				End Site
				{
					OFFSET 0.000000 -2.463878 4.653993
				}
			}
		}
	}
	JOINT rThigh
	{
		OFFSET -5.338403 -1.642589 1.368821
		CHANNELS 3 Xrotation Zrotation Yrotation 
		JOINT rShin
		{
			OFFSET 2.053232 -20.121670 0.000000
			CHANNELS 3 Xrotation Zrotation Yrotation 
			JOINT rFoot
			{
				OFFSET 0.000000 -19.300380 -1.231939
				CHANNELS 3 Xrotation Yrotation Zrotation 
				End Site
				{
					OFFSET 0.000000 -2.463878 4.653993
				}
			}
		}
	}
}
MOTION
Frames: 18
Frame Time: 0.033264
19.995884 18.468296 12.251048 90.000671 0.013666 -132.006592 12.059705 22.994543 8.210081 12.974648 18.528862 15.648916 -0.002416 16.022310 -7.002305 -0.443954 7.182371 -28.116449 34.764038 0.894395 3.427736 -15.516949 -27.017391 36.422359 -71.645828 43.693851 26.805693 -5.052796 1.579881 10.818040 21.202181 24.050785 -1.864759 32.794525 -17.873974 -56.374428 1.237373 -0.284450 -15.302978 30.729017 -3.836412 -3.001370 -122.560326 37.275528 -11.965314 68.812057 13.705503 -0.774125 14.214041 2.509862 -19.451260 -141.887955 26.497076 1.369183 79.807800 41.910477 -2.418868 13.816690 6.559078 6.871938 
19.995884 18.468296 12.189772 90.000671 0.013666 -132.006592 12.059730 22.869534 8.210075 12.850264 18.253466 15.650043 -0.002428 16.208717 -7.002306 -0.474550 7.359893 -28.296164 34.935501 1.331676 2.951900 -15.516949 -27.017391 36.422359 -71.947723 43.716816 27.015738 -5.325972 1.565878 10.698875 21.237225 24.309208 -1.971486 32.794525 -17.873974 -56.374428 1.237373 -0.284450 -15.302978 30.729017 -3.836412 -3.001370 -122.670555 37.137783 -12.159453 68.812057 13.705503 -0.774125 14.330992 2.608639 -19.574575 -141.795853 26.250174 1.156010 79.807800 41.910477 -2.418868 13.969554 6.767959 6.574147 
19.995884 18.468296 12.128496 90.000671 0.013666 -132.006592 12.059753 22.744528 8.210069 12.726077 17.978085 15.651797 -0.002439 16.395060 -7.002303 -0.505703 7.537228 -28.475964 35.110596 1.767454 2.474725 -15.516949 -27.017391 36.422359 -72.249840 43.738968 27.226019 -5.599112 1.551309 10.579791 21.272861 24.567566 -2.078601 32.794525 -17.873974 -56.374428 1.237373 -0.284450 -15.302978 30.729017 -3.836412 -3.001370 -122.779999 36.999744 -12.352909 68.812057 13.705503 -0.774125 14.448168 2.707163 -19.698107 -141.702881 26.003576 0.942853 79.807800 41.910477 -2.418868 14.123569 6.976040 6.275681 
19.995884 18.468296 12.067220 90.000671 0.013666 -132.006592 12.059777 22.619524 8.210062 12.602077 17.702717 15.654174 -0.002450 16.581354 -7.002301 -0.537413 7.714367 -28.655827 35.289337 2.201672 1.996189 -15.516949 -27.017391 36.422359 -72.552155 43.760319 27.436523 -5.872207 1.536173 10.460778 21.309113 24.825859 -2.186114 32.794525 -17.873974 -56.374428 1.237373 -0.284450 -15.302978 30.729021 -3.836412 -3.001370 -122.888657 36.861420 -12.545677 68.812057 13.705503 -0.774125 14.565555 2.805432 -19.821836 -141.609116 25.757313 0.729710 79.807800 41.910477 -2.418868 14.278737 7.183308 5.976537 
19.995884 18.468296 12.005943 90.000671 0.013666 -132.006592 12.059802 22.494524 8.210054 12.478265 17.427374 15.657178 -0.002462 16.767588 -7.002298 -0.569680 7.891308 -28.835764 35.471699 2.634261 1.516278 -15.516949 -27.017391 36.422359 -72.854675 43.780865 27.647253 -6.145251 1.520470 10.341843 21.345966 25.084070 -2.294026 32.794525 -17.873974 -56.374428 1.237373 -0.284450 -15.302978 30.729017 -3.836412 -3.001370 -122.996544 36.722801 -12.737765 68.812057 13.705503 -0.774125 14.683168 2.903446 -19.945784 -141.514526 25.511381 0.516576 79.807800 41.910477 -2.418868 14.435046 7.389745 5.676715 
19.995884 18.468296 11.944667 90.000671 0.013666 -132.006592 12.059827 22.369522 8.210048 12.354627 17.152052 15.660790 -0.002473 16.953766 -7.002295 -0.602504 8.068050 -29.015785 35.657696 3.065163 1.034974 -15.516949 -27.017391 36.422359 -73.157402 43.800606 27.858198 -6.418243 1.504202 10.222996 21.383442 25.342211 -2.402346 32.794525 -17.873974 -56.374428 1.237373 -0.284450 -15.302978 30.729017 -3.836412 -3.001370 -123.103653 36.583912 -12.929180 68.812057 13.705503 -0.774125 14.801002 3.001202 -20.069937 -141.419144 25.265804 0.303451 79.807800 41.910477 -2.418868 14.592500 7.595348 5.376220 
19.995884 18.468296 11.883390 90.000671 0.013666 -132.006592 12.059851 22.244520 8.210042 12.231159 16.876757 15.665018 -0.002484 17.139891 -7.002296 -0.635884 8.244589 -29.195883 35.847309 3.494313 0.552259 -15.516949 -27.017391 36.422359 -73.460320 43.819550 28.069342 -6.691180 1.487369 10.104239 21.421528 25.600260 -2.511077 32.794525 -17.873974 -56.374428 1.237373 -0.284450 -15.302978 30.729017 -3.836412 -3.001370 -123.209991 36.444740 -13.119919 68.812057 13.705503 -0.774125 14.919051 3.098700 -20.194302 -141.322937 25.020575 0.090327 79.807800 41.910473 -2.418866 14.751099 7.800100 5.075048 
19.995884 18.468296 11.822115 90.000671 0.013666 -132.006592 12.059877 22.119528 8.210037 12.107867 16.601507 15.669863 -0.002496 17.325951 -7.002294 -0.669819 8.420918 -29.376053 36.040546 3.921647 0.068119 -15.516949 -27.017391 36.422359 -73.763397 43.837677 28.280674 -6.964049 1.469973 9.985573 21.460241 25.858227 -2.620228 32.794525 -17.873974 -56.374428 1.237373 -0.284450 -15.302978 30.729017 -3.836412 -3.001370 -123.315544 36.305290 -13.309984 68.812057 13.705503 -0.774125 15.037319 3.195936 -20.318869 -141.225952 24.775700 -0.122796 79.807800 41.910473 -2.418866 14.910832 8.003991 4.773203 
19.995884 18.468296 11.760839 90.000671 0.013666 -132.006592 12.059901 21.994534 8.210030 11.984737 16.326296 15.675319 -0.002507 17.511951 -7.002292 -0.704310 8.597039 -29.556318 36.237381 4.347105 -0.417462 -15.516949 -27.017391 36.422359 -74.066650 43.855007 28.492193 -7.236855 1.452014 9.867006 21.499586 26.116112 -2.729802 32.794525 -17.873974 -56.374428 1.237373 -0.284450 -15.302978 30.729017 -3.836412 -3.001370 -123.420334 36.165550 -13.499381 68.812057 13.705503 -0.774125 15.155804 3.292911 -20.443645 -141.128159 24.531199 -0.335926 79.807800 41.910477 -2.418869 15.071704 8.207008 4.470686 
19.995884 18.468296 11.699562 90.000671 0.013666 -132.006592 12.059926 21.869541 8.210022 11.861771 16.051134 15.681384 -0.002518 17.697893 -7.002290 -0.739357 8.772946 -29.736660 36.437840 4.770625 -0.904498 -15.516949 -27.017391 36.422359 -74.370041 43.871525 28.703876 -7.509585 1.433494 9.748542 21.539560 26.373886 -2.839804 32.794525 -17.873974 -56.374428 1.237373 -0.284450 -15.302978 30.729017 -3.836412 -3.001370 -123.524368 36.025558 -13.688117 68.812057 13.705503 -0.774125 15.274508 3.389625 -20.568632 -141.029587 24.287071 -0.549060 79.807800 41.910477 -2.418868 15.233706 8.409142 4.167498 
19.995884 18.468296 11.638286 90.000671 0.013666 -132.006592 12.059949 21.744549 8.210015 11.738954 15.776019 15.688046 -0.002530 17.883770 -7.002286 -0.774960 8.948636 -29.917097 36.641876 5.192142 -1.393001 -15.516949 -27.017391 36.422359 -74.673584 43.887234 28.915726 -7.782238 1.414412 9.630184 21.580173 26.631567 -2.950243 32.794525 -17.873974 -56.374428 1.237373 -0.284450 -15.302978 30.729021 -3.836412 -3.001370 -123.627640 35.885296 -13.876192 68.812057 13.705503 -0.774125 15.393423 3.486071 -20.693815 -140.930206 24.043325 -0.762203 79.807800 41.910477 -2.418868 15.396832 8.610377 3.863640 
19.995884 18.468296 11.577009 90.000671 0.013666 -132.006592 12.059977 21.619568 8.210010 11.616290 15.500962 15.695315 -0.002541 18.069586 -7.002285 -0.811116 9.124104 -30.097605 36.849518 5.611601 -1.882987 -15.516949 -27.017391 36.422359 -74.977234 43.902115 29.127707 -8.054810 1.394771 9.511935 21.621429 26.889143 -3.061122 32.794525 -17.873974 -56.374428 1.237373 -0.284450 -15.302978 30.729017 -3.836412 -3.001370 -123.730133 35.744755 -14.063602 68.812057 13.705503 -0.774125 15.512560 3.582255 -20.819212 -140.830063 23.799976 -0.975362 79.807800 41.910477 -2.418868 15.561095 8.810708 3.559115 
19.995884 18.468296 11.515734 90.000671 0.013666 -132.006592 12.060000 21.494583 8.210002 11.493770 15.225964 15.703178 -0.002552 18.255339 -7.002285 -0.847828 9.299347 -30.278208 37.060734 6.028934 -2.374463 -15.516949 -27.017391 36.422359 -75.281052 43.916210 29.339857 -8.327296 1.374571 9.393803 21.663338 27.146618 -3.172449 32.794525 -17.873974 -56.374428 1.237373 -0.284450 -15.302978 30.729017 -3.836412 -3.001370 -123.831902 35.603981 -14.250367 68.812057 13.705503 -0.774125 15.631909 3.678169 -20.944813 -140.729141 23.557030 -1.188535 79.807800 41.910473 -2.418866 15.726473 9.010117 3.253925 
19.995884 18.468296 11.454457 90.000671 0.013666 -132.006592 12.060023 21.369606 8.209995 11.371393 14.951035 15.711643 -0.002564 18.441025 -7.002283 -0.885095 9.474368 -30.458908 37.275528 6.444085 -2.867444 -15.516949 -27.017391 36.422359 -75.584953 43.929478 29.552114 -8.599690 1.353813 9.275788 21.705896 27.403971 -3.284229 32.794525 -17.873974 -56.374428 1.237373 -0.284450 -15.302978 30.729017 -3.836412 -3.001370 -123.932907 35.462940 -14.436478 68.812057 13.705503 -0.774125 15.751470 3.773815 -21.070612 -140.627457 23.314489 -1.401729 79.807800 41.910473 -2.418866 15.892967 9.208593 2.948069 
19.995884 18.468296 11.393181 90.000671 0.013666 -132.006592 12.060051 21.244635 8.209990 11.249152 14.676176 15.720700 -0.002575 18.626648 -7.002281 -0.922915 9.649158 -30.639687 37.493885 6.856992 -3.361938 -15.516949 -27.017391 36.422359 -75.888947 43.941929 29.764492 -8.871985 1.332498 9.157895 21.749121 27.661219 -3.396469 32.794525 -17.873974 -56.374428 1.237373 -0.284450 -15.302978 30.729017 -3.836412 -3.001370 -124.033165 35.321640 -14.621943 68.812057 13.705503 -0.774125 15.871249 3.869192 -21.196623 -140.524979 23.072369 -1.614940 79.807800 41.910477 -2.418869 16.060575 9.406129 2.641552 
19.995884 18.468296 11.331904 90.000671 0.013666 -132.006592 12.060075 21.119663 8.209981 11.127045 14.401394 15.730350 -0.002586 18.812204 -7.002279 -0.961290 9.823715 -30.820570 37.715794 7.267594 -3.857954 -15.516949 -27.017391 36.422359 -76.193054 43.953587 29.976990 -9.144181 1.310628 9.040132 21.792999 27.918331 -3.509174 32.794525 -17.873974 -56.374428 1.237373 -0.284450 -15.302978 30.729017 -3.836412 -3.001370 -124.132683 35.180092 -14.806763 68.812057 13.705503 -0.774125 15.991239 3.964297 -21.322834 -140.421768 22.830671 -1.828178 79.807800 41.910477 -2.418869 16.229294 9.602711 2.334376 
19.995884 18.468296 11.270628 90.000671 0.013666 -132.006592 12.060098 20.994696 8.209973 11.005064 14.126694 15.740586 -0.002598 18.997694 -7.002278 -1.000218 9.998035 -31.001547 37.941246 7.675836 -4.355504 -15.516949 -27.017391 36.422359 -76.497208 43.964405 30.189573 -9.416274 1.288204 8.922500 21.837561 28.175331 -3.622352 32.794525 -17.873974 -56.374428 1.237373 -0.284450 -15.302978 30.729017 -3.836412 -3.001370 -124.231461 35.038315 -14.990946 68.812057 13.705503 -0.774125 16.111443 4.059129 -21.449245 -140.317780 22.589407 -2.041443 79.807800 41.910477 -2.418868 16.399122 9.798328 2.026542 
19.995884 18.468296 11.209352 90.000671 0.013666 -132.006592 12.060122 20.869738 8.209968 10.883209 13.852081 15.751415 -0.453001 18.997721 -7.002261 -1.844306 9.998039 -31.001501 38.170227 8.081652 -4.854589 -15.516949 -27.017391 36.422359 -76.801445 43.974426 30.402245 -9.688253 1.265227 8.805002 21.882786 28.432198 -3.736007 32.794525 -17.873974 -56.374428 1.237373 -0.284450 -15.302978 30.729017 -3.836412 -3.001370 -124.329483 34.896282 -15.174486 68.812057 13.705503 -0.774125 16.231861 4.153687 -21.575861 -140.213043 22.348585 -2.254738 79.807800 41.910477 -2.418868 16.570047 9.992969 1.718054 
